PathFileType	4	(X/Y/Z)	C:\Users\Basilio\Documents\Thesis Gigler\squatting_fais\c3dfiles\041\SLS_pre_back2\markers_experimental.trc
DataRate	CameraRate	NumFrames	NumMarkers	Units	OrigDataRate	OrigDataStartFrame	OrigNumFrames
200.000000	200.000000	4	63	mm	200.000000	459	1837
Frame#	Time	FHD			LBHD			RBHD			C7			T10			CLAV			LSHO			LUUPA			LMUPA			LDUPA			LLEP			LMEP			LRAD			LUL			LRFIN			RSHO			RUPA1			RMUPA			RDUPA			RLEP			RMEP			RRAD			RUL			RUFIN			LASI			RASI			USACR			LSACR			RSACR			LTHI1			LTHI2			LTHI3			LTHI4			LLFC			LMFC			LTIB1			LTIB2			LTIB3			LTIB4			LLMAL			LMMAL			LHEE			LMT1			LMT2			LMT5			RTHI			RTHI2			RTHI3			RTHI4			RLFC			RMFC			RTIB1			RTIB2			RTIB3			RTIB4			RLMAL			RMMAL			RHEE			RMT1			RMT2			RMT5			*61			*62			
		X1	Y1	Z1	X2	Y2	Z2	X3	Y3	Z3	X4	Y4	Z4	X5	Y5	Z5	X6	Y6	Z6	X7	Y7	Z7	X8	Y8	Z8	X9	Y9	Z9	X10	Y10	Z10	X11	Y11	Z11	X12	Y12	Z12	X13	Y13	Z13	X14	Y14	Z14	X15	Y15	Z15	X16	Y16	Z16	X17	Y17	Z17	X18	Y18	Z18	X19	Y19	Z19	X20	Y20	Z20	X21	Y21	Z21	X22	Y22	Z22	X23	Y23	Z23	X24	Y24	Z24	X25	Y25	Z25	X26	Y26	Z26	X27	Y27	Z27	X28	Y28	Z28	X29	Y29	Z29	X30	Y30	Z30	X31	Y31	Z31	X32	Y32	Z32	X33	Y33	Z33	X34	Y34	Z34	X35	Y35	Z35	X36	Y36	Z36	X37	Y37	Z37	X38	Y38	Z38	X39	Y39	Z39	X40	Y40	Z40	X41	Y41	Z41	X42	Y42	Z42	X43	Y43	Z43	X44	Y44	Z44	X45	Y45	Z45	X46	Y46	Z46	X47	Y47	Z47	X48	Y48	Z48	X49	Y49	Z49	X50	Y50	Z50	X51	Y51	Z51	X52	Y52	Z52	X53	Y53	Z53	X54	Y54	Z54	X55	Y55	Z55	X56	Y56	Z56	X57	Y57	Z57	X58	Y58	Z58	X59	Y59	Z59	X60	Y60	Z60	X61	Y61	Z61	X62	Y62	Z62	X63	Y63	Z63	

460	2.295	-144.5333557128907	1736.114135742188	-1096.094116210938	-331.5146484375001	1699.37060546875	-1168.153930664063	-308.3761291503907	1699.217407226563	-1016.006958007813	-394.3346557617189	1551.497924804688	-1105.997314453125	-437.0567321777345	1236.097900390625	-1085.914428710938	-241.4149017333985	1475.04248046875	-1106.806274414063	-315.9360656738282	1529.191528320313	-1272.99169921875	-286.2631530761719	1377.45849609375	-1396.339721679688	-238.7222595214844	1364.788818359375	-1394.267944335938	-263.7868652343751	1322.708251953125	-1432.613647460938	-241.8548889160157	1282.03857421875	-1451.866577148438	-241.7268829345704	1222.06494140625	-1389.146362304688	-3.838929891586305	1134.417236328125	-1458.509155273438	-47.35630798339844	1109.524291992188	-1513.56298828125	59.37621688842775	1112.739379882813	-1497.40478515625	-299.6852722167969	1536.550903320313	-944.574890136719	-271.8734436035157	1348.841674804688	-825.1758422851565	-223.2385864257813	1358.757568359375	-832.3051757812502	-219.5447998046876	1306.135131835938	-805.4639892578127	-191.6759033203125	1270.209838867188	-795.7852783203127	-218.2954864501954	1220.222412109375	-865.0944824218752	11.33671092987061	1107.754150390625	-857.721374511719	-18.73450660705567	1079.642211914063	-793.3530273437502	80.66646575927736	1073.774169921875	-843.8710937500002	-244.8748626708985	1049.272216796875	-1170.8271484375	-273.5898132324219	1050.586059570313	-942.7434082031252	-439.3089294433595	1119.59375	-1078.611938476563	-449.9967041015626	1092.293701171875	-1105.421630859375	-458.9671020507814	1094.139404296875	-1051.692504882813	-338.3748168945313	835.7932739257815	-1232.558349609375	-297.6676025390626	762.7216796875001	-1217.206420898438	-251.6557312011719	770.9031982421877	-1204.004638671875	-322.4146423339844	708.2051391601564	-1205.865478515625	-298.6657714843751	531.8203125000001	-1172.6416015625	-303.7251892089844	522.8455200195314	-1053.414306640625	-289.3251342773438	343.3229064941407	-1101.150756835938	-333.8078002929688	299.0342712402344	-1164.470581054688	-296.8945312500001	294.0208129882813	-1133.823486328125	-312.5052795410157	219.9598083496094	-1097.171142578125	-375.6053161621094	129.2598419189453	-1133.994384765625	-345.9051513671876	138.2286071777344	-1050.324584960938	-443.6504821777345	112.4899978637696	-1095.890991210938	-241.3228607177735	62.60972595214845	-1050.20947265625	-230.6621856689454	55.51698684692384	-1094.934814453125	-272.5205383300782	41.02124404907227	-1152.455688476563	-359.9390258789063	786.9630126953127	-861.425720214844	-313.7533264160157	740.5811157226564	-849.4407348632815	-281.3629150390626	747.2064819335939	-850.8318481445315	-326.1877136230469	656.7644653320314	-858.5581665039065	-320.0920410156251	551.9754638671876	-849.2879028320315	-289.8437194824219	514.0344848632814	-956.2705688476565	-389.6235656738282	401.8599853515626	-851.1000976562502	-503.3106384277345	396.3011169433595	-857.0798339843752	-469.2969665527345	365.3674621582032	-848.073181152344	-478.2497558593751	311.0007934570313	-872.3692016601565	-598.7504882812501	254.3153991699219	-871.1980590820315	-551.8233642578126	251.1795349121094	-942.3020629882815	-662.6449584960939	248.2869415283204	-930.1970214843752	-482.3316040039064	131.7503051757813	-915.753356933594	-486.6922607421876	132.3675384521485	-863.9189453125002	-540.6312255859376	136.4116821289063	-823.6421508789065	-4216.916992187501	853.1478271484377	-3944.614746093751	nan	nan	nan	
461	2.3	-145.399658203125	1736.571411132813	-1095.996215820313	-331.9673156738282	1699.321655273438	-1168.243896484375	-308.8597412109376	1699.242553710938	-1016.104370117188	-394.4378967285157	1551.418579101563	-1106.160278320313	-436.9108886718751	1236.119750976563	-1086.041137695313	-241.5661621093751	1475.205810546875	-1106.882446289063	-315.8658447265626	1529.44189453125	-1273.0146484375	-284.7728881835938	1378.399291992188	-1396.53955078125	-237.0720520019532	1366.29931640625	-1394.64306640625	-261.8391418457032	1324.126708984375	-1432.995483398438	-239.4473876953126	1283.861206054688	-1452.45703125	-238.8711090087891	1223.744018554688	-1390.012451171875	-0.03202183172106744	1138.481201171875	-1458.825439453125	-42.99005508422852	1113.390991210938	-1514.282348632813	63.7168312072754	1117.3720703125	-1497.703247070313	-299.7947998046876	1536.809204101563	-944.8908691406252	-269.8933715820313	1350.029052734375	-825.571228027344	-221.5734100341797	1360.088134765625	-832.849792480469	-217.2318420410157	1307.629516601563	-805.6657714843752	-188.8685760498047	1272.206665039063	-796.011413574219	-215.3128356933594	1221.680419921875	-865.0774536132815	15.80911159515381	1111.84521484375	-858.3381958007815	-13.98060131072998	1083.194702148438	-793.9136962890627	85.42962646484376	1078.654296875	-844.499938964844	-244.7654571533204	1049.1181640625	-1170.80224609375	-273.5663146972657	1050.6162109375	-942.7991333007815	-439.1798400878907	1119.698120117188	-1078.72021484375	-449.8771972656251	1092.207275390625	-1105.59619140625	-458.2663879394532	1094.459228515625	-1051.667602539063	-338.3932495117188	835.8039550781252	-1232.582763671875	-298.1846618652344	762.9882812500001	-1217.330078125	-251.7568664550782	770.8914184570315	-1204.02587890625	-322.4920349121094	708.2056884765626	-1205.89453125	-298.7565917968751	531.7988891601564	-1172.665405273438	-303.7676391601563	522.8831787109376	-1053.412841796875	-289.3563842773438	343.3355102539063	-1101.085205078125	-333.8669738769532	299.0489807128907	-1164.362426757813	-296.6568908691407	294.0550842285157	-1133.82763671875	-312.5665283203126	219.9105072021485	-1097.1884765625	-375.6242980957032	129.27587890625	-1133.986694335938	-345.8617858886719	138.2272338867188	-1050.287841796875	-443.7922668457032	112.592758178711	-1095.924926757813	-241.0555419921876	62.35852432250978	-1050.255126953125	-230.6762390136719	55.42105865478517	-1094.916748046875	-272.1022949218751	40.8050765991211	-1152.323364257813	-359.6524047851563	787.1021118164065	-861.4248046875002	-313.3977661132813	740.9159545898439	-849.497985839844	-280.8454284667969	747.3477783203126	-851.0759887695315	-325.9378967285157	656.9024047851564	-858.4418945312502	-319.8571472167969	552.1963500976564	-849.3090820312502	-289.7780761718751	514.2532348632814	-956.355651855469	-389.3820800781251	401.740936279297	-851.1446533203127	-502.8664855957032	396.5775756835939	-856.9467773437502	-469.0593566894532	365.6025695800782	-847.7940063476565	-477.9178771972657	311.1990356445313	-872.468200683594	-598.5820312500001	254.4792175292969	-871.137145996094	-551.6046752929689	251.3726959228516	-942.3281250000002	-662.4943847656251	248.4924774169922	-930.1133422851565	-482.2327880859376	131.8346405029297	-915.7333984375002	-486.5128784179689	132.5047302246094	-863.9217529296877	-540.4856567382814	136.5254516601563	-823.6475830078127	-4216.739746093751	853.1019287109377	-3944.822265625001	nan	nan	nan	
462	2.305	-145.98828125	1737.082763671875	-1096.111328125	-332.4027709960938	1699.370483398438	-1168.35498046875	-309.5838317871094	1699.213134765625	-1016.239074707031	-394.5689697265626	1551.4228515625	-1106.31640625	-436.8086547851564	1236.15478515625	-1086.235473632813	-241.3946075439454	1475.438354492188	-1106.963256835938	-315.8276672363282	1529.685546875	-1273.006713867188	-283.2485351562501	1379.633544921875	-1396.98388671875	-235.6886444091797	1367.844848632813	-1394.817016601563	-259.7004699707032	1325.645751953125	-1433.566162109375	-236.8123016357422	1285.525146484375	-1453.107543945313	-235.8533630371094	1225.271606445313	-1390.748291015625	3.709340572357179	1142.350708007813	-1459.232788085938	-38.81895828247071	1117.2216796875	-1514.911743164063	67.74620056152345	1122.2099609375	-1497.839111328125	-299.9190979003907	1537.133911132813	-945.1926269531252	-268.1555480957032	1350.849487304688	-825.6912231445315	-219.9151153564454	1361.71142578125	-832.9901123046877	-214.9169158935547	1309.242553710938	-805.8604736328127	-185.8938293457032	1274.17236328125	-796.2585449218752	-211.8100891113282	1222.905151367188	-865.2446289062502	20.16376113891602	1115.848876953125	-858.9590454101565	-9.067689895629885	1087.054443359375	-794.451843261719	90.26617431640626	1083.38427734375	-845.4968872070315	-244.7297973632813	1049.074829101563	-1170.89599609375	-273.5115356445313	1050.6943359375	-942.8616333007815	-439.0718383789064	1119.779296875	-1078.84228515625	-449.7881469726564	1092.434448242188	-1105.671508789063	-458.9070739746095	1094.390747070313	-1051.9443359375	-338.3896179199219	835.800476074219	-1232.58056640625	-298.2517700195313	762.9483642578126	-1217.349853515625	-251.7488708496094	770.8693847656252	-1204.147705078125	-322.5906372070313	708.1928710937501	-1205.91162109375	-298.8627929687501	531.8129272460939	-1172.710571289063	-303.8594360351563	522.8951416015626	-1053.384765625	-289.3676452636719	343.3998107910157	-1101.094970703125	-333.9030456542969	299.0561218261719	-1164.451538085938	-296.8187255859376	294.0367431640626	-1133.819091796875	-312.6029663085938	219.908187866211	-1097.111083984375	-375.5386047363282	129.2616271972657	-1133.973266601563	-345.8882446289063	138.2157287597657	-1050.264404296875	-443.7911376953126	112.6416015625	-1095.916870117188	-241.1129608154297	62.36042785644533	-1050.194946289063	-230.7550506591797	55.29931640625001	-1094.96923828125	-272.5019836425782	41.05283355712891	-1152.465942382813	-359.3728942871094	787.2276611328127	-861.4158325195315	-313.2124328613282	740.9675903320314	-849.5212402343752	-280.6742858886719	747.4789428710939	-851.115905761719	-325.6850891113282	657.0520629882814	-858.3374023437502	-319.6302490234376	552.2633056640626	-849.2400512695315	-289.7223510742188	514.4942626953126	-956.4218750000002	-389.0355224609376	401.8805236816407	-851.330505371094	-502.6376953125001	396.7259216308595	-856.7945556640627	-468.7708129882814	365.7868957519532	-847.854187011719	-477.7527465820314	311.2827148437501	-872.4199829101565	-598.3361816406251	254.6153869628907	-871.094421386719	-551.4274291992189	251.450668334961	-942.327331542969	-662.1207885742189	248.8034973144532	-930.2134399414065	-482.1549377441407	131.884765625	-915.7515869140627	-486.4252014160157	132.6011657714844	-863.8972167968752	-540.3715820312501	136.6365966796875	-823.7015380859377	-4216.752441406251	853.139343261719	-3944.845703125001	nan	nan	nan	
463	2.31	-146.5664672851563	1737.720581054688	-1096.046020507813	-333.0443115234376	1699.434326171875	-1168.460693359375	-310.1622009277344	1699.28564453125	-1016.360473632813	-394.6935424804689	1551.380004882813	-1106.451782226563	-436.6555480957032	1236.170532226563	-1086.396118164063	-241.4622650146485	1475.555786132813	-1107.0625	-315.6938781738282	1529.920043945313	-1273.033325195313	-281.7930908203126	1380.833374023438	-1397.36083984375	-234.2050018310547	1369.310302734375	-1394.79345703125	-257.7841491699219	1327.173217773438	-1433.945678710938	-234.3972930908204	1287.411010742188	-1453.556518554688	-232.5784149169922	1226.966186523438	-1391.449462890625	7.452023983001711	1146.481689453125	-1459.516479492188	-34.58949279785157	1121.061889648438	-1515.539306640625	71.80491638183595	1127.034423828125	-1498.08251953125	-300.0828247070313	1537.41259765625	-945.4862060546877	-266.4114074707032	1352.027709960938	-826.0034179687502	-218.0208282470704	1363.254150390625	-833.6363525390627	-212.6110229492188	1310.93408203125	-806.1994628906252	-183.2808685302735	1275.957641601563	-796.2387695312502	-208.8564453125001	1224.678344726563	-865.2742309570315	24.3789291381836	1119.957641601563	-859.607849121094	-4.383424758911134	1090.87060546875	-794.8887939453127	94.79295349121095	1088.156127929688	-846.1834106445315	-244.4396972656251	1048.98095703125	-1170.965942382813	-273.5199890136719	1050.786499023438	-942.9648437500002	-439.0180664062501	1119.902954101563	-1078.978637695313	-449.7874145507814	1092.580078125	-1105.80908203125	-458.8807067871095	1094.545532226563	-1052.109130859375	-338.3731079101563	835.8120117187502	-1232.616821289063	-298.2714538574219	762.9462280273439	-1217.362426757813	-251.8169708251954	770.866394042969	-1204.134887695313	-322.5867309570313	708.2553100585939	-1205.906372070313	-298.1752624511719	531.4541015625001	-1171.851806640625	-303.9502563476563	522.9097900390626	-1053.422729492188	-289.5311889648438	343.4415893554688	-1101.109130859375	-333.9093017578126	299.0620727539063	-1164.354614257813	-296.6663818359376	293.9935607910157	-1133.653564453125	-312.6067810058594	219.9645080566407	-1097.020141601563	-375.5486145019532	129.262435913086	-1133.958984375	-345.9134216308594	138.2456207275391	-1050.220825195313	-443.785614013672	112.6608428955078	-1095.91259765625	-241.153793334961	62.31221771240236	-1050.13720703125	-230.6818389892579	55.47390747070314	-1094.898803710938	-272.5353698730469	41.08178710937501	-1152.473022460938	-358.9617309570313	787.3728637695315	-861.4613037109377	-312.8715209960938	741.0507202148439	-849.5463867187502	-280.3801269531251	747.6859130859376	-851.1221923828127	-325.4381713867188	657.0753784179689	-858.2666015625002	-319.2797546386719	552.3366699218751	-849.2208251953127	-289.6093444824219	514.6289062500001	-956.4836425781252	-388.5191345214845	402.0797119140626	-851.4619750976565	-502.2712707519532	396.7466125488282	-856.7903442382815	-468.4096984863282	365.8295593261719	-848.2381591796877	-477.4456481933595	311.4633789062501	-872.481872558594	-598.1434936523439	254.7531280517579	-871.0205688476565	-550.9918212890626	251.3809661865235	-942.2952880859377	-661.8530273437501	249.0010223388672	-930.1873779296877	-482.1092224121095	131.9239196777344	-915.7478637695315	-486.3154296875001	132.6692199707032	-863.8723144531252	-540.2152709960939	136.723388671875	-823.7207641601565	-4216.594238281251	853.074157714844	-3944.691650390626	nan	nan	nan	
